# xmcd
#
# Track frame offsets: 
#        150
#        20865
#        37522
#        55695
#        71335
#        92740
#        107957
#        129115
#        143477
#        163890
#        179702
#        197327
#
# Disc length: 2877 seconds
#
# Revision: 0
# Processed by: cddbd v1.5PL3 Copyright (c) Steve Scherf et al.
# Submitted via: ExactAudioCopy v0.95a5
#
DISCID=9a0b3b0c
DTITLE=Eyvah - Haluk Ozkan
DYEAR=1900
DGENRE=Pop
TTITLE0=Dermanim Ali
TTITLE1=Gece gelen konuk
TTITLE2=Eyvah
TTITLE3=Metris
TTITLE4=Seher oldu vakt oldu
TTITLE5=Halaylim
TTITLE6=Affetmem seni
TTITLE7=Eyvallah Sahim
TTITLE8=Dersim daglari
TTITLE9=Hem okudum hem de yazdim
TTITLE10=Bir güzelin asigiyim erenler
TTITLE11=Anlasan benim halimi
EXTD=
EXTT0=
EXTT1=
EXTT2=
EXTT3=
EXTT4=
EXTT5=
EXTT6=
EXTT7=
EXTT8=
EXTT9=
EXTT10=
EXTT11=
PLAYORDER=
